<svg width="183" height="142" viewBox="0 0 183 142" fill="none" xmlns="http://www.w3.org/2000/svg">
<g clip-path="url(#clip0_2585_171)">
<path d="M154.005 27.19L152.945 25.8628C151.848 24.523 150.65 23.1895 149.346 21.8685C135.885 8.24529 115.27 -0.0939031 97.965 6.67054e-06L96.0088 0.0375706C113.84 -0.569713 135.54 7.96356 149.572 22.1627C151.208 23.8218 152.688 25.4996 154.005 27.1838" fill="white"/>
<path d="M163.253 42.923L162.732 41.7335C160.4 36.5121 156.676 31.153 151.547 25.9567C132.549 6.71769 101.125 -3.31813 79.6446 2.5481L78.284 2.93626C99.9839 -3.46213 132.255 6.68638 151.672 26.3386C157.064 31.7978 160.92 37.4387 163.253 42.9168" fill="white"/>
<path d="M168.82 72.5296L168.845 71.3338C168.958 60.8222 163.428 48.7141 152.13 37.2759C128.593 13.4416 88.9302 1.53386 63.5374 10.6807C59.1924 12.2458 55.5496 14.3244 52.6091 16.8161L51.6749 17.6237C54.6969 14.9692 58.4902 12.7592 63.0483 11.1189C88.554 1.93454 128.392 13.8924 152.036 37.8268C163.56 49.4967 169.109 61.8552 168.814 72.5296" fill="white"/>
<path d="M162.105 100.559L162.619 99.4442C168.475 86.4095 163.478 68.7169 147.283 52.3265C122.361 27.0961 80.3656 14.4934 53.4869 24.1786C44.4458 27.4342 38.2637 32.7996 34.9909 39.4421L34.4642 40.5377C37.6869 33.7073 43.9316 28.198 53.1546 24.8736C80.0396 15.1883 122.035 27.7973 146.964 53.0277C163.328 69.5934 168.262 87.4863 162.112 100.559" fill="white"/>
<path d="M144.863 123.535L145.772 122.721C159.296 110.419 156.707 88.9075 137.371 69.3304C113.621 45.2833 73.6005 33.2754 47.982 42.4973C35.0536 47.1552 28.2634 56.3333 27.768 67.3709L27.7242 68.5729C28.0439 57.3663 34.8091 48.0255 47.8754 43.3174C73.3873 34.1268 113.238 46.0909 136.882 70.0316C156.312 89.7026 158.764 111.339 144.87 123.529" fill="white"/>
<path d="M118.336 138.198L119.702 137.778C120.166 137.628 120.624 137.471 121.082 137.309C142.964 129.426 144.255 106.393 123.972 85.8585C103.689 65.3236 69.5125 55.0687 47.6308 62.9446C31.8747 68.6167 26.7962 82.1522 32.7588 96.9524L33.2541 98.1607C26.9279 83.2479 31.8747 69.5245 47.7186 63.8148C69.3934 56.0078 103.257 66.1688 123.352 86.5159C143.446 106.857 142.167 129.683 120.492 137.484C119.79 137.741 119.069 137.972 118.336 138.191" fill="white"/>
<path d="M50.2516 122.02C35.5802 107.17 36.5144 90.504 52.3395 84.8068C68.1645 79.1096 92.8864 86.5285 107.558 101.379C122.229 116.229 121.295 132.895 105.47 138.592C89.6449 144.289 64.923 136.87 50.2516 122.02C50.145 121.951 50.0384 121.882 49.9319 121.813C64.8603 136.927 90.0149 144.477 106.122 138.68C122.223 132.882 123.176 115.928 108.248 100.815C93.3191 85.7021 68.1645 78.1517 52.0573 83.9491C35.9564 89.7464 35.0034 106.7 49.9319 121.813C50.0384 121.882 50.145 121.951 50.2516 122.02Z" fill="white"/>
<path d="M60.2708 124.43C52.4774 116.542 52.9727 107.689 61.3806 104.659C69.7884 101.629 82.9237 105.573 90.7171 113.462C98.5105 121.35 98.0152 130.203 89.6073 133.233C81.1995 136.263 68.0642 132.319 60.2708 124.43C60.1015 124.43 59.9322 124.43 59.7692 124.43C67.8761 132.632 81.5318 136.733 90.2719 133.583C99.0121 130.434 99.5325 121.231 91.4256 113.03C83.3187 104.822 69.663 100.728 60.9229 103.877C52.1827 107.026 51.6623 116.229 59.7692 124.43C59.9385 124.43 60.1015 124.43 60.2708 124.43Z" fill="white"/>
<path d="M66.8917 123.66C62.9543 119.672 63.2051 115.208 67.4498 113.675C71.6944 112.147 78.3279 114.138 82.2654 118.12C86.2028 122.108 85.952 126.572 81.7073 128.105C77.4627 129.633 70.8292 127.642 66.8917 123.66C66.6911 123.698 66.4967 123.742 66.3024 123.779C70.5659 128.099 77.7574 130.253 82.3594 128.6C86.9615 126.941 87.2311 122.101 82.9676 117.782C78.7041 113.462 71.5126 111.308 66.9106 112.961C62.3085 114.62 62.0389 119.459 66.3024 123.779C66.4967 123.742 66.6911 123.704 66.8917 123.66Z" fill="white"/>
<path d="M73.8387 121.713C74.0582 121.932 74.4218 122.045 74.6538 121.958C74.8858 121.876 74.8983 121.626 74.6851 121.407C74.472 121.187 74.102 121.075 73.8701 121.162C73.6381 121.244 73.6255 121.494 73.8387 121.713Z" fill="white"/>
<path d="M114.31 23.0204C110.392 19.0512 110.643 14.5998 114.868 13.0785C119.094 11.5572 125.703 13.5355 129.621 17.5048C133.54 21.474 133.289 25.9254 129.063 27.4467C124.837 28.968 118.229 26.9897 114.31 23.0204C114.542 22.9077 114.774 22.795 115.006 22.6823C118.593 26.3135 124.643 28.1291 128.512 26.733C132.38 25.3369 132.612 21.2612 129.019 17.63C125.433 13.9988 119.383 12.1832 115.514 13.5794C111.646 14.9755 111.414 19.0512 115.006 22.6823C114.774 22.795 114.542 22.9077 114.31 23.0204Z" fill="white"/>
<path d="M105.865 27.6721C98.0904 19.8024 98.5857 10.9687 106.975 7.95103C115.364 4.92714 128.468 8.86509 136.242 16.7347C144.017 24.6044 143.522 33.4381 135.133 36.4558C126.743 39.4734 113.64 35.5417 105.865 27.6721C106.097 27.5281 106.335 27.3841 106.573 27.2464C114.041 34.803 126.612 38.5781 134.669 35.6795C142.719 32.7808 143.196 24.3039 135.734 16.7472C128.273 9.19064 115.696 5.41547 107.639 8.31415C99.5889 11.2128 99.1124 19.6898 106.573 27.2464C106.335 27.3841 106.103 27.5281 105.865 27.6721Z" fill="white"/>
<path d="M89.018 39.7489C74.3591 24.9111 75.2933 8.26406 91.1058 2.56687C106.918 -3.13032 131.615 4.28855 146.274 19.1263C160.933 33.964 159.999 50.6111 144.186 56.3083C128.374 62.0055 103.677 54.5929 89.018 39.7489C89.25 39.5611 89.4819 39.367 89.7139 39.1791C104.109 53.7539 128.367 61.0351 143.892 55.4381C159.422 49.8473 160.337 33.5007 145.942 18.9259C131.546 4.35116 107.288 -2.92998 91.7579 2.66704C76.2275 8.2578 75.3121 24.6044 89.7077 39.1791C89.4757 39.367 89.2437 39.5611 89.0117 39.7489" fill="white"/>
<path d="M163.253 42.923C169.598 57.8421 164.657 71.578 148.813 77.2815C127.151 85.0822 93.3065 74.9275 73.2243 54.5929C73.4312 54.3737 73.6381 54.1546 73.845 53.9355C93.7392 74.076 127.258 84.1369 148.713 76.405C164.632 70.6702 169.441 56.7528 162.732 41.7272L163.253 42.9168" fill="white"/>
<path d="M73.2243 54.5991C53.142 34.2645 54.4211 11.457 76.0833 3.65623C76.8044 3.39954 77.5379 3.15538 78.284 2.93626L79.6446 2.5481C78.6352 2.82356 77.6445 3.1366 76.679 3.48093C55.2236 11.2066 53.9571 33.8013 73.845 53.9355C73.6381 54.1546 73.4312 54.3738 73.2243 54.5929" fill="white"/>
<path d="M168.82 72.5296C168.513 83.7487 161.742 93.0959 148.675 97.8039C123.17 106.988 83.3312 95.0304 59.6877 71.0959C59.857 70.858 60.02 70.6264 60.1893 70.3885C83.7262 94.2165 123.389 106.124 148.782 96.9775C161.98 92.2256 168.726 82.7157 168.852 71.3338L168.827 72.5296" fill="white"/>
<path d="M59.6815 71.0897C40.2701 51.4375 37.8123 29.8195 51.6686 17.6237L52.6028 16.8161C38.364 28.8867 40.6713 50.6299 60.183 70.3822C60.0138 70.6201 59.8445 70.8518 59.6815 71.0897Z" fill="white"/>
<path d="M162.105 100.559C158.889 107.401 152.638 112.923 143.402 116.248C116.517 125.933 74.5222 113.324 49.5933 88.0937C49.7062 87.8558 49.8128 87.6241 49.9319 87.3925C74.8545 112.623 116.85 125.226 143.729 115.547C153.146 112.153 159.46 106.481 162.613 99.4505L162.099 100.565" fill="white"/>
<path d="M49.5996 88.0936C33.2228 71.5154 28.2947 53.61 34.4642 40.5377L34.9909 39.4421C28.5329 52.5519 33.3983 70.6452 49.9381 87.3924C49.8253 87.6303 49.7124 87.862 49.5996 88.0936Z" fill="white"/>
<path d="M144.863 123.535C141.848 126.183 138.061 128.381 133.509 130.021C107.997 139.206 68.1457 127.248 44.5022 103.307C44.5335 103.119 44.5649 102.931 44.6025 102.744C68.3526 126.791 108.373 138.799 133.991 129.57C138.757 127.855 142.681 125.526 145.772 122.715L144.863 123.529" fill="white"/>
<path d="M44.5022 103.307C32.9657 91.6246 27.4169 79.2536 27.7179 68.5729L27.7618 67.3708C27.2727 78.2018 32.8341 90.8295 44.6025 102.744C44.5649 102.931 44.5336 103.119 44.5022 103.307Z" fill="white"/>
<path d="M118.336 138.198C96.6233 144.627 64.296 134.473 44.8596 114.795C44.8157 114.664 44.7781 114.532 44.7404 114.401C64.6033 134.51 97.7895 144.765 119.702 137.778L118.336 138.198Z" fill="white"/>
<path d="M44.8596 114.795C39.4487 109.317 35.5865 103.664 33.2604 98.167L32.7651 96.9587C35.0849 102.712 39.0725 108.654 44.7467 114.395C44.7843 114.526 44.822 114.664 44.8658 114.789" fill="white"/>
<path d="M100.686 141.115H100.623C82.767 141.754 61.0106 133.214 46.9537 118.977C46.8785 118.877 46.8032 118.777 46.7343 118.671C61.2614 133.377 83.9018 142.085 102.185 141.04L100.692 141.109" fill="white"/>
<path d="M46.9474 118.977C45.2922 117.3 43.8 115.609 42.477 113.906L41.4488 112.548C42.9724 114.601 44.7279 116.655 46.728 118.677C46.8032 118.783 46.8722 118.884 46.9474 118.984" fill="white"/>
<circle cx="94.5082" cy="116.521" r="3.33461" fill="#D9FC67"/>
<circle cx="81.932" cy="31.6311" r="3.33461" fill="#D9FC67"/>
<circle cx="154.245" cy="47.3515" r="3.33461" fill="#D9FC67"/>
</g>
<path d="M83.9225 37.7292L83.9225 42.1753L80.0322 43.8426L77.2533 42.1753L83.9225 37.7292Z" fill="white"/>
<rect x="85.5883" y="58.8482" width="85.5883" height="17.7846" rx="4" transform="rotate(-180 85.5883 58.8482)" fill="white"/>
<path d="M9.44848 44.3977L10.5715 48.238H14.2056L11.2655 50.6114L12.3885 54.4516L9.44848 52.0782L6.50843 54.4516L7.63143 50.6114L4.69137 48.238H8.32548L9.44848 44.3977Z" fill="#FFC93D"/>
<path d="M25.0107 44.3977L26.1337 48.238H29.7678L26.8278 50.6114L27.9508 54.4516L25.0107 52.0782L22.0707 54.4516L23.1937 50.6114L20.2536 48.238H23.8877L25.0107 44.3977Z" fill="#FFC93D"/>
<path d="M41.1252 44.3977L42.373 48.238H46.4109L43.1442 50.6114L44.392 54.4516L41.1252 52.0782L37.8585 54.4516L39.1063 50.6114L35.8396 48.238H39.8775L41.1252 44.3977Z" fill="#FFC93D"/>
<path d="M57.8003 44.3977L59.0481 48.238H63.086L59.8192 50.6114L61.067 54.4516L57.8003 52.0782L54.5336 54.4516L55.7814 50.6114L52.5146 48.238H56.5525L57.8003 44.3977Z" fill="#FFC93D"/>
<path d="M74.4753 44.3977L75.7231 48.238H79.761L76.4943 50.6114L77.742 54.4516L74.4753 52.0782L71.2086 54.4516L72.4564 50.6114L69.1896 48.238H73.2275L74.4753 44.3977Z" fill="#FFC93D"/>
<path d="M98.0798 112.297V107.851L101.97 106.183L104.749 107.851L98.0798 112.297Z" fill="white"/>
<rect x="96.4141" y="91.1777" width="85.5883" height="17.7846" rx="4" fill="white"/>
<path d="M105.861 94.5117L106.984 98.352H110.618L107.678 100.725L108.801 104.566L105.861 102.192L102.921 104.566L104.044 100.725L101.104 98.352H104.738L105.861 94.5117Z" fill="#FFC93D"/>
<path d="M121.424 94.5117L122.547 98.352H126.181L123.241 100.725L124.364 104.566L121.424 102.192L118.483 104.566L119.606 100.725L116.666 98.352H120.301L121.424 94.5117Z" fill="#FFC93D"/>
<path d="M137.538 94.5117L138.786 98.352H142.824L139.557 100.725L140.805 104.566L137.538 102.192L134.271 104.566L135.519 100.725L132.252 98.352H136.29L137.538 94.5117Z" fill="#FFC93D"/>
<path d="M154.213 94.5117L155.461 98.352H159.499L156.232 100.725L157.48 104.566L154.213 102.192L150.946 104.566L152.194 100.725L148.927 98.352H152.965L154.213 94.5117Z" fill="#FFC93D"/>
<path d="M170.888 94.5117L172.136 98.352H176.174L172.907 100.725L174.155 104.566L170.888 102.192L167.621 104.566L168.869 100.725L165.602 98.352H169.64L170.888 94.5117Z" fill="#FFC93D"/>
<defs>
<clipPath id="clip0_2585_171">
<rect width="141.165" height="141.165" fill="white" transform="translate(27.6865)"/>
</clipPath>
</defs>
</svg>
